<?xml version="1.0" encoding="utf-8"?>
<!-- Generator: Adobe Illustrator 27.2.0, SVG Export Plug-In . SVG Version: 6.00 Build 0)  -->
<svg version="1.1" id="Layer_1" xmlns="http://www.w3.org/2000/svg" xmlns:xlink="http://www.w3.org/1999/xlink" x="0px" y="0px"
	 viewBox="0 0 800 433.7" style="enable-background:new 0 0 800 433.7;" xml:space="preserve">
<style type="text/css">
	.st0{opacity:0.6;}
	.st1{fill:none;stroke:#D7E4F3;stroke-width:1.8603;stroke-miterlimit:10;}
	.st2{fill:#D7E4F3;}
</style>
<g class="st0">
	<g>
		<polyline class="st1" points="114.7,239.1 51.3,235.4 6,239.1 6,235.9 51.4,231.7 113.1,235.9 113.1,44.6 117.9,44.6 117.9,240.8 
			136.7,240.8 136.7,44.6 141.9,44.6 141.9,240.8 149,240.8 149,224.8 149,82.9 154.1,82.9 154.1,226.8 165.3,226.8 165.3,236.2 
			169.9,236.2 169.9,82.3 174.7,82.3 174.7,235.7 186.7,235.7 179.6,176 182.1,176 190.7,236.2 190.7,253.9 143.9,253.9 		"/>
		<polyline class="st1" points="15.9,239.1 43.6,243.4 97.6,245.1 		"/>
		<polyline class="st1" points="97.6,242.1 97.6,256.2 97.6,262.5 86.5,262.5 86.5,292.2 86.5,294.8 178.1,294.8 279.2,294.8 
			279.2,274.8 301.5,274.8 301.5,271.4 311.8,271.4 311.8,268.4 266.7,268.4 266.7,272.2 294.4,272.2 		"/>
		<polyline class="st1" points="165.3,294.8 165.3,261.1 101,261.1 		"/>
		<polyline class="st1" points="165.3,261.1 177,261.1 177,268.4 231.8,268.4 		"/>
		<polyline class="st1" points="194.1,268.4 194.1,294.8 194.1,354 199.1,354 199.1,321.6 220.1,321.6 220.1,354 225.9,354 
			225.9,321.2 238.7,321.2 238.7,355.8 245.4,355.8 245.4,321.2 262.2,321.2 262.2,363.3 267.6,363.3 267.6,294.8 261.8,294.8 
			261.8,313.6 246.3,313.6 246.3,294.8 240.1,294.8 240.1,315.9 199.1,315.9 199.1,294.8 		"/>
		<line class="st1" x1="183.8" y1="253.9" x2="183.8" y2="268.4"/>
		<polyline class="st1" points="117.9,47.2 136.7,47.2 117.9,60.9 136.7,77.4 117.9,86.9 136.7,101.1 117.9,112.8 136.7,130 
			117.9,141.7 136.7,159.7 117.9,172.5 136.7,190.2 117.9,202.5 136.7,218 117.9,228.5 		"/>
		<polyline class="st1" points="169.9,85.1 154.1,85.1 169.9,100.9 154.1,114 169.9,128.6 154.1,143.4 169.9,156.8 154.1,169.4 
			169.9,181.4 154.1,196 169.9,209.1 154.1,218 169.9,226.8 		"/>
		<path class="st1" d="M162,93"/>
		<polyline class="st1" points="112.8,294.8 112.8,363.3 119.4,363.3 119.4,294.8 		"/>
		<polyline class="st1" points="136.7,294.8 136.7,363.3 142.5,363.3 142.5,294.8 		"/>
		<polyline class="st1" points="149.6,294.8 149.6,354 154.1,354 154.1,294.8 		"/>
		<polyline class="st1" points="169.9,294.8 169.9,354 173.4,354 173.4,294.8 		"/>
		<polyline class="st1" points="188.6,268.4 188.6,258.2 221.9,258.2 221.9,242.1 239.2,242.1 239.2,219.2 239.2,65.3 244.5,65.3 
			244.5,220.5 259.6,220.5 259.6,65.3 265.3,65.3 265.3,239.1 284.8,239.1 284.8,245.1 265.8,245.1 265.8,253.9 276.9,253.9 
			276.9,268.4 		"/>
		<polygon class="st1" points="179.3,146.4 194.1,173 217.4,212.1 239.2,242.1 239.2,234.7 224.6,207.9 198.6,169.5 		"/>
		<line class="st1" x1="194.1" y1="173" x2="198.6" y2="169.5"/>
		<line class="st1" x1="217.4" y1="212.1" x2="221.9" y2="208.5"/>
		<polyline class="st1" points="119.4,299 136.7,311 119.4,326.5 136.7,342 119.4,355.8 		"/>
		<polyline class="st1" points="154.1,300.8 169.9,311 154.1,324.4 169.9,337.6 154.1,349.6 		"/>
		<line class="st1" x1="-164.6" y1="337.6" x2="112.8" y2="337.6"/>
		<line class="st1" x1="169.9" y1="337.6" x2="194.1" y2="337.6"/>
		<line class="st1" x1="267.6" y1="337.6" x2="539" y2="337.6"/>
		<path class="st1" d="M194.6,352.8c5.7,0.4,11.4,1.3,17,2.5c1,0.2,2.1,0.6,2.5,1.5c0.6,1.5-1,2.8-2.4,3.6c-4.8,2.5-10,4.3-15.3,5.4
			c-1.7,0.4-3.6,0.8-4.5,2.2c-1.1,1.7-0.3,4.2,1.3,5.5s3.7,1.8,5.7,2.2c8,1.7,16.1,3.5,24.1,5.2c-3.2,6.5-10.2,10-15.4,15.1
			c-1.4,1.4-2.7,3-3,4.9c-0.4,2.6,1.2,5.2,3.3,6.7s4.7,2.2,7.3,2.8c4.9,1.2,9.8,2.4,14.6,3.6c4.4,1.1,9.5,2.8,10.9,7.1
			c1.5,4.4-1.8,8.9-4.9,12.4"/>
		<path class="st1" d="M268.8,352.8c5.7,0.4,11.4,1.3,17,2.5c1,0.2,2.1,0.6,2.5,1.5c0.6,1.5-1,2.8-2.4,3.6c-4.8,2.5-10,4.3-15.3,5.4
			c-1.7,0.4-3.6,0.8-4.5,2.2c-1.1,1.7-0.3,4.2,1.3,5.5c1.6,1.3,3.7,1.8,5.7,2.2c8,1.7,16.1,3.5,24.1,5.2c-3.2,6.5-10.2,10-15.4,15.1
			c-1.4,1.4-2.7,3-3,4.9c-0.4,2.6,1.2,5.2,3.3,6.7c2.1,1.5,4.7,2.2,7.3,2.8c4.9,1.2,9.8,2.4,14.6,3.6c4.4,1.1,9.5,2.8,10.9,7.1
			c1.5,4.4-1.8,8.9-4.9,12.4"/>
		<g>
			<path class="st1" d="M276.1,23.9c0,0,21.2,18.5,29.7,23.5c0,0,5.5,4,6.6,5.5s14.1,14.4,14.5,14.9s3.9,3,7.6,3.8
				c0,0,3.2-0.6,4.4,0.7c0,0,1.1,1.5,0.1,1.9l14.1,1.6c0,0,8,1,9.2,1.2s9.9,2.7,9.9,2.7l15.3,6.2l12.6,3.3c0,0-15.4-0.6-19.8-2.2
				c0,0-14.8-0.7-17.7-0.7c-2.9-0.1-12.7-1.1-15.1-1.4s-7.3-0.9-9.4-2s-3-1.4-3-1.4l-3.9,2.7l5.2,4.4l-1.6,1.1l-2.7,0.8l-2.1,1
				l-2.4,0.4l-2.2,0.1l-1.4,0.1l-1.9,0.5l-1.1-0.2l-1.4-0.6h-1l-1.9-0.6l-1.7-0.7l-3.2-1.9l-1-2.1l-1.4-2.3l-0.5-1.8l-1.3-2.4v-2.1
				l11,1.5h2l1.1-1.4c0,0-1.9-0.4-2-1.3c-0.1-1-1.2-1.6-1.2-1.6l-9.6-6.1l-8.1-9.4L290,48.8c0,0-8.9-9.8-11.2-15
				C276.6,28.6,276.3,27.1,276.1,23.9z"/>
			<path class="st1" d="M362.9,37.5c0,0,3,6.7,8.2,9.4c0,0,7.8,2.8,10.1,4.9c2.3,2.1,8.1,4.4,11.2,10.5c0,0-0.4,3.4,3.1,6.7
				c0.1,0.1,1,2.8,1.8,3.2c0.8,0.5,1.5,0.7,1.5,0.7s0-2.7,0.3-3.6c0.4-0.9,2.5-4.2,2.5-5.6c0,0.1,0.2-0.6,0.2-0.6s6.7-5.3,13.4-6.7
				c6.7-1.4,10.3-1.4,12.9-2.2c2.9-0.8,8.5-3.1,11.2-7.2c-0.1,0-2.6,2.5-9.1,2.7c0,0-11.4-0.2-16.1,1.8s-12.4,5.9-12.4,5.9
				s-1.9,0.4-3.3-0.6s-3.8-0.8-4.8-0.1c0,0-10.5-10.2-14.2-11.7s-12-3.8-13.4-4.6C364.4,39.8,363.1,38,362.9,37.5z"/>
		</g>
	</g>
	<g>
		<g>
			<path class="st2" d="M506,232.9c0.3,0,0.5-0.2,0.5-0.5V181h11.7v10c0,0.1,0.1,0.3,0.2,0.4c0.1,0.1,0.2,0.2,0.4,0.1
				c4-0.2,8.3-0.3,9.6-0.2c-0.2,2.1-0.4,10.7,0,47.7c0,0.3,0.2,0.5,0.5,0.5l0,0c0.3,0,0.5-0.2,0.5-0.5c-0.2-18.4-0.4-46.2,0-47.8
				c0.1-0.1,0.1-0.3,0-0.5c-0.2-0.4-0.3-0.8-10.1-0.3v-9.9c0-0.3-0.2-0.5-0.5-0.5H506c-0.3,0-0.5,0.2-0.5,0.5v51.9
				C505.5,232.6,505.7,232.9,506,232.9z M522.5,237.7c0,0.3,0.2,0.5,0.5,0.5l0,0c0.3,0,0.5-0.2,0.5-0.5c-0.1-15.6-0.2-39.1,0-40.6
				c0,0,0,0,0-0.1c0-0.2-0.1-0.5-0.3-0.6c-0.1,0-0.1,0-0.2,0h-7.8v-13.6c0-0.3-0.2-0.5-0.5-0.5s-0.5,0.2-0.5,0.5v14.1
				c0,0.3,0.2,0.5,0.5,0.5h7.8C522.3,199.7,522.3,207.8,522.5,237.7z M371.7,267.3c0.3-0.1,0.4-0.4,0.3-0.7
				c-1.5-3.5-0.6-7.8,2.1-10.5c2.7-2.7,7-3.5,10.5-2c0.2,0.1,0.4,0.2,0.5,0.3c0.9,0.4,1.9,0.9,3,0.7c2.4-0.4,3.1-3.3,2.7-5.9
				c-0.1-0.8-0.3-1.5-0.4-2.3c-0.3-1.6-0.6-3.2-0.5-4.7c0.1-2.1,1.1-4.6,3.2-5.3c1-0.4,2.1-0.3,3.1,0.2c1.8,0.9,3.4,2.9,4.2,5.3
				c0.3,1,0.6,2.1,0.8,3.1c0.6,2.6,1.3,5.3,3.1,7.3c1.2,1.3,2.6,2,3.9,1.7c1.9-0.3,2.8-2,3.7-3.7c0.6-1.2,1.2-2.4,2.2-3.1
				c1-0.7,2-0.6,2.7-0.4c1.5,0.4,3.1,1.7,3.8,3.2c0.8,1.5,1.1,3.1,1.5,4.9c0.2,1.2,0.5,2.4,0.9,3.6c1.1,3.2,3.5,6.1,6.4,7.8
				c1.1,0.6,2.4,1,3.5,1c1.3,0,2.6-0.5,3.2-1.6c1.2-2-0.2-4.2-1.4-6.1c-0.2-0.3-0.4-0.6-0.6-1c-1.6-2.6-1.9-5.8-1-8.6
				c0.3-1.1,0.8-1.8,1.4-2.2c1.5-1,3.6,0.1,5.4,1.1l0.2,0.1c1.2,0.7,3.2,1.3,4.8,0.8c0.8-0.3,1.4-0.8,1.7-1.5
				c0.8-1.8-0.5-3.6-1.5-5.1l-0.3-0.5c-1.4-2-1.9-4.2-1.5-6c0.5-2.1,2.3-3.7,4.2-3.7c0,0,0,0,0.1,0c2.9,0.1,4.8,3.4,6.2,6.1
				c1.9,3.4,5.1,6.1,8.2,4.8c2.4-1.1,2.9-3.7,3.4-6.2c0.2-0.9,0.4-1.9,0.7-2.8c0.7-2.2,2.7-4.1,5.2-5s5.2-0.7,7.2,0.6
				c0.8,0.5,1.5,1.2,2.2,1.8c1.3,1.2,2.6,2.3,4.4,2.8c1.2,0.3,2.4-0.1,3.6-1.2c2-1.8,3.3-5,3-7.3l0,0v-39.7h8.9v18.1
				c0,0.1,0,0.2,0.1,0.3l2,3.5v24.1c0,0.3,0.2,0.5,0.5,0.5s0.5-0.2,0.5-0.5v-24.2c0-0.1,0-0.2-0.1-0.3l-2-3.5V187
				c0-0.3-0.2-0.5-0.5-0.5h-10c-0.3,0-0.5,0.2-0.5,0.5v29.6H375.4c-0.3,0-0.5,0.2-0.5,0.5s0.2,0.5,0.5,0.5h115.2v9.6l0,0l0,0
				c0.3,2-1,4.9-2.7,6.5c-0.6,0.6-1.6,1.2-2.6,0.9c-1.5-0.4-2.7-1.4-3.9-2.5c-0.7-0.7-1.5-1.3-2.4-1.9c-2.2-1.4-5.3-1.7-8.1-0.7
				c-2.8,1-5,3.1-5.8,5.6c-0.3,0.9-0.5,1.9-0.7,2.9c-0.5,2.4-0.9,4.6-2.8,5.4c-2.8,1.2-5.6-2.1-6.9-4.3c-1.6-2.9-3.6-6.5-7.1-6.6
				c-2.4,0-4.7,1.9-5.3,4.5c-0.5,2.2,0.1,4.7,1.7,6.9l0.4,0.5c1,1.4,2,2.8,1.4,4c-0.2,0.5-0.6,0.8-1.1,0.9c-1.2,0.4-2.8-0.1-4-0.7
				l-0.2-0.1c-2-1.1-4.4-2.4-6.4-1.1c-0.8,0.5-1.4,1.4-1.8,2.7c-1,3.1-0.6,6.7,1.1,9.5c0.2,0.3,0.4,0.6,0.6,1c1.1,1.7,2.3,3.5,1.4,5
				c-1,1.7-3.7,1.2-5.4,0.2c-2.8-1.6-4.9-4.2-6-7.2c-0.4-1.1-0.6-2.3-0.9-3.5c-0.4-1.7-0.7-3.5-1.6-5.1c-0.9-1.8-2.7-3.2-4.5-3.7
				c-1.3-0.3-2.5-0.1-3.5,0.5c-1.2,0.8-1.9,2.2-2.5,3.5c-0.8,1.6-1.5,2.9-2.9,3.2c-1,0.1-2.1-0.4-3-1.4c-1.7-1.8-2.2-4.3-2.9-6.9
				c-0.3-1.1-0.5-2.2-0.9-3.2c-0.8-2.6-2.7-4.9-4.7-5.9c-1.3-0.6-2.7-0.7-3.9-0.3c-2.5,0.9-3.8,3.8-3.9,6.2c-0.1,1.7,0.3,3.4,0.6,5
				c0.1,0.7,0.3,1.5,0.4,2.2c0.2,1.7-0.1,4.4-1.9,4.7c-0.8,0.1-1.6-0.2-2.4-0.6c-0.2-0.1-0.4-0.2-0.6-0.3c-3.9-1.7-8.7-0.8-11.7,2.2
				c-3,3-3.9,7.8-2.3,11.7C371.2,267.3,371.5,267.4,371.7,267.3z M549.3,232c0.3,0,0.5-0.2,0.5-0.5v-40.9h2.6c0.3,0,0.5-0.2,0.5-0.5
				v-2.5c0.6,0,1.7,0,2.7,0l2,2c0.1,0.1,0.2,0.2,0.4,0.2h3.3v41.3c0,0.3,0.2,0.5,0.5,0.5s0.5-0.2,0.5-0.5v-58h3.2v62.7
				c0,0.3,0.2,0.5,0.5,0.5s0.5-0.2,0.5-0.5v-65.9h7.9v2.5c0,0.3,0.2,0.5,0.5,0.5h2.6v55.9c0,0.3,0.2,0.5,0.5,0.5s0.5-0.2,0.5-0.5
				v-56.4c0-0.3-0.2-0.5-0.5-0.5h-2.6v-2.5c0-0.3-0.2-0.5-0.5-0.5H566c-0.3,0-0.5,0.2-0.5,0.5v2.6h-3.7c-0.3,0-0.5,0.2-0.5,0.5v16.3
				h-3.1l-2-2c-0.1-0.1-0.2-0.1-0.4-0.2c-3.6,0-3.6,0-3.8,0.1c-0.1,0.1-0.2,0.2-0.2,0.4v2.5h-2.6c-0.3,0-0.5,0.2-0.5,0.5v41.4
				C548.8,231.8,549,232,549.3,232z M742.7,252.6c0.1,0,0.3-0.1,0.4-0.1c0.1-0.1,0.2-0.2,0.2-0.4v-5.5l5.5-0.8
				c0.3,0,0.5-0.3,0.4-0.6c0-0.3-0.3-0.5-0.6-0.4l-6,0.9c-0.3,0-0.4,0.3-0.4,0.5v5.5l-29.7-0.9c-0.2,0-0.5,0.2-0.5,0.5
				s0.2,0.5,0.5,0.5L742.7,252.6L742.7,252.6z M526.7,345.4c-1.2-5.7,9.2-8.8,9.3-8.8c0.3-0.1,0.4-0.4,0.4-0.6
				c-0.1-0.3-0.4-0.4-0.6-0.4c-0.5,0.1-11.6,3.4-10,10.2c0,0.1,0,0.1,0.1,0.2c0.3,0.4,2.4,2.7,15.5,2.7c5.3,0,12.3-0.4,21.7-1.4
				l43.1-5.5c0.3,0,0.5-0.3,0.4-0.6c0-0.3-0.3-0.5-0.6-0.4l-43.1,5.5C532.8,349.5,527.3,345.9,526.7,345.4z M556,191.6
				c-0.2-0.2-0.5-0.2-0.7,0s-0.7,0.7-0.2,45.3c0,0.3,0.2,0.5,0.5,0.5l0,0c0.3,0,0.5-0.2,0.5-0.5c-0.2-17.1-0.4-43,0-44.7
				C556.1,192,556.1,191.7,556,191.6z M889.9,213.9H696.1v-3.6c0-0.3-0.2-0.5-0.5-0.5h-6.5V204c0-0.3-0.2-0.5-0.5-0.5h-6.9
				c-0.3,0-0.5,0.2-0.5,0.5v8.1h-6.5v-15.9c0-0.1-0.1-0.3-0.2-0.4l-6.3-6.3c-0.1-0.1-0.4-0.2-0.6-0.1c-0.2,0.1-0.3,0.3-0.3,0.5v21.3
				h-1.6v-14.3c0-0.2-0.1-0.4-0.3-0.5s-0.4-0.1-0.5,0l-5.8,3.7c-0.2,0.1-0.2,0.3-0.2,0.4v12.1h-3.1v-22.8c0-0.3-0.2-0.5-0.5-0.5
				h-8.9c-0.3,0-0.5,0.2-0.5,0.5v21.6h-1.8v-10.9c0-0.3-0.2-0.5-0.5-0.5h-6.7c-0.3,0-0.5,0.2-0.5,0.5v13.3h-4.2v-21.9
				c0-0.3-0.2-0.5-0.5-0.5h-7.5c-0.3,0-0.5,0.2-0.5,0.5s0.2,0.5,0.5,0.5h7v21.9c0,0.3,0.2,0.5,0.5,0.5h5.3c0.3,0,0.5-0.2,0.5-0.5
				V201h5.7v10.9c0,0.3,0.2,0.5,0.5,0.5h2.8c0.3,0,0.5-0.2,0.5-0.5v-21.6h7.9v22.8c0,0.3,0.2,0.5,0.5,0.5h4.1c0.3,0,0.5-0.2,0.5-0.5
				v-12.3l4.8-3v13.9c0,0.3,0.2,0.5,0.5,0.5h2.6c0.3,0,0.5-0.2,0.5-0.5v-20.6l5.3,5.3v16.2c0,0.3,0.2,0.5,0.5,0.5h7.5
				c0.3,0,0.5-0.2,0.5-0.5v-8.1h5.8v5.8c0,0.3,0.2,0.5,0.5,0.5h6.5v3.6c0,0.3,0.2,0.5,0.5,0.5h194.3c0.3,0,0.5-0.2,0.5-0.5
				S890.2,213.9,889.9,213.9z M545.4,344.7v2.1c0,0.3,0.2,0.5,0.5,0.5s0.5-0.2,0.5-0.5v-1.6h1.5c0.1,0,0.3-0.1,0.4-0.2
				c0.1-0.1,0.2-0.2,0.2-0.4c0-9.4-0.1-23.7,0-24.5c0-0.3-0.1-0.5-0.3-0.6c-0.3-0.1-0.6,0.1-0.7,0.3c0,0.1-0.1,0.4,0,24.2H546
				C545.7,344.2,545.4,344.4,545.4,344.7z M592.3,258.5c0.1,0,5.4-0.9,8.6-5.6l0.1-0.1c0.6-0.9,1.1-1.9,1.6-3.1
				c0.7,0.2,2,0.6,4.2,0.6c1.9,0,4.5-0.3,7.7-1.2c7.5-2.1,19.2-5.7,20.9-6.2c0.8,0.4,3.9,1.9,7.7,0.8c4.1-1.2,50.4-15.1,50.9-15.2
				c0.2-0.1,0.4-0.3,0.4-0.5s-0.2-0.4-0.4-0.5l-4-0.7l-5.1-1.8l-7-2.3v-3.9c0-2.3-1.3-3.5-2.5-3.7c-1.2-0.3-2.4,0.3-3,1.5
				c-0.5,1.1-0.4,2.4-0.3,3.6v0.6c0,0.4,0.1,0.8,0.1,1.3c0.1,0.8,0.2,1.6,0,2.4c-0.2,1.5-1.2,2.7-2.4,3.1c-0.6,0.2-1.4,0-2-0.4
				c-0.5-0.4-0.8-0.8-0.8-1.4c0-0.7,0.3-1.3,0.7-2c0.1-0.2,0.2-0.3,0.2-0.5c0.9-1.8,1.1-3.7,0.4-5.1c-0.4-0.9-1.3-1.7-2.4-2
				c-0.9-0.3-1.7-0.2-2.4,0.3c-1,0.6-1.5,1.9-2,2.9c-0.6,1.4-1,2.3-2,2.3l0,0c-0.9,0-1.5-0.9-1.8-1.7c-0.1-0.3-0.2-0.7-0.3-1
				c-0.2-0.7-0.4-1.5-0.8-2.1c-0.6-0.9-1.5-1.6-2.7-1.8c-1.8-0.4-4.2,0.2-6,1.4c-0.7,0.5-1.6,1.2-1.9,2.3c-0.3,1.4,0.6,2.7,1.5,3.5
				c0.5,0.4,1,0.7,1.4,0.9c0.5,0.3,1,0.6,1.4,0.9c1.2,1,2,2.8,1.3,4.4c-0.3,0.7-1.1,1.3-2,1.4c-0.7,0.1-1.4-0.1-1.8-0.5
				c-0.5-0.5-0.7-1.3-0.8-2.1c-0.1-0.5-0.2-1-0.4-1.5c-0.6-1.5-1.9-2.6-3.7-3c-1.7-0.4-3.5,0.1-4.6,1.2c-0.7,0.7-1.2,1.5-1.6,2.3
				c-0.7,1.3-1.4,2.5-2.6,2.7c-0.9,0.2-2-0.1-2.9-0.8s-1.4-1.6-1.5-2.5c-0.1-1.5-1-3-2.4-3.8s-3-1-4.7-0.5v-41
				c0-0.3-0.2-0.5-0.5-0.5H618c-0.3,0-0.5,0.2-0.5,0.5v3.3h-3.9v-4c0-0.3-0.2-0.5-0.5-0.5h-3.5c-0.3,0-0.5,0.2-0.5,0.5v2.1
				c-3.9-13.7-8.8-19.1-9.2-19.4c-0.1-0.1-0.2-0.2-0.4-0.2c-6.8-0.3-8.6-0.1-9.1,0h-4.5c-0.3,0-0.5,0.2-0.5,0.5V231l-3.2-0.3h-0.1
				l-8.5,1.4l0,0c-0.1,0-0.1,0-0.2,0.1l0,0l-0.1,0.1c0,0,0,0,0,0.1c0,0,0,0,0,0.1l0,0c0,0.1,0,0.2,0,0.3l0,0l0,0
				c0,0.1,0.1,0.2,0.2,0.2l0,0l0,0l0,0l6.7,5.1v3.4l-2.7,0.5l-55,8.9l-10.2,1.4c0,0,0,0-0.1,0V244c0-0.3-0.2-0.5-0.4-0.5
				c-1.6-0.3-2.6,0.6-2.7,0.7c-0.1,0.1-0.2,0.2-0.2,0.4v7.2c-2.2,0.4-9.9,2-10.7,4.4c-0.1,0.4-0.2,0.9,0.4,1.6l3.8,4.2
				c-2.8,0.7-5.2,1.3-7.4,2c-0.3,0.1-0.7,0.2-1,0.3c-2.2,0.6-4.6,1.4-6.4,2.9c-0.7,0.6-1.1,1.5-0.9,2.3c0.3,1.3,1.9,2.1,3.4,2.8
				c1.1,0.5,2.4,1.2,2.4,1.8c0,0.2-0.1,0.6-1.2,1.4C478.7,284,403,299.9,342,311.1c-0.3,0.1-0.5,0.3-0.4,0.6c0,0.2,0.3,0.4,0.5,0.4
				h0.1c64-11.7,136.9-27.2,149.7-35.7c1.2-0.8,1.7-1.5,1.7-2.3c-0.1-1.2-1.5-1.9-3-2.6c-1.3-0.6-2.7-1.3-2.9-2.2
				c-0.1-0.5,0.2-1,0.6-1.3c1.6-1.4,3.8-2,6-2.7c0.4-0.1,0.7-0.2,1.1-0.3c2.3-0.7,4.8-1.4,7.9-2.1l4.1,4.6c0.1,0.1,1.3,1.7,0.1,2.9
				c-1.7,1.7-1.7,3.7-1.7,3.8c0,0.3,0.2,0.5,0.5,0.5c0,0,0.4,0,1.2,0c4.3,0,19.5-0.4,39.1-4.9L592.3,258.5z M618,227.8
				c0.3,0,0.5-0.2,0.5-0.5v-46.7h3.3v41.2l0,0v0.1v0.1l0,0c0,0,0,0,0,0.1c0,0,0,0.1,0.1,0.1c0,0,0.1,0,0.1,0.1c0,0,0.1,0,0.1,0.1
				h0.1c0,0,0,0,0.1,0l0,0h0.1h0.1l0,0c2.1-0.9,3.7-0.3,4.4,0.1c1.1,0.7,1.8,1.8,1.9,3c0.1,1.2,0.7,2.4,1.9,3.2
				c1.1,0.9,2.5,1.2,3.7,1c1.7-0.4,2.5-1.8,3.3-3.2c0.4-0.8,0.9-1.6,1.5-2.1c0.9-0.9,2.2-1.2,3.6-0.9c1.4,0.3,2.5,1.2,2.9,2.3
				c0.2,0.4,0.2,0.9,0.3,1.3c0.2,0.9,0.4,1.9,1.1,2.6c0.5,0.6,1.3,0.9,2.1,0.9c0.2,0,0.4,0,0.6,0c1.2-0.2,2.3-1,2.8-2
				c0.9-2.1-0.1-4.4-1.6-5.6c-0.5-0.4-1-0.7-1.5-1s-0.9-0.5-1.3-0.9c-0.7-0.5-1.4-1.5-1.2-2.4c0.2-0.7,0.9-1.3,1.5-1.7
				c1.6-1.1,3.7-1.6,5.3-1.3c0.9,0.2,1.6,0.6,2.1,1.4c0.3,0.5,0.5,1.2,0.7,1.9c0.1,0.4,0.2,0.8,0.3,1.1c0.4,1.2,1.4,2.4,2.8,2.4l0,0
				c1.7,0,2.3-1.5,2.9-2.9c0.4-1,0.9-2,1.6-2.5c0.4-0.3,1-0.3,1.6-0.2c0.7,0.2,1.4,0.8,1.7,1.4c0.5,1.1,0.4,2.7-0.4,4.2
				c-0.1,0.2-0.2,0.3-0.2,0.5c-0.4,0.8-0.8,1.6-0.8,2.5c0,0.8,0.5,1.6,1.2,2.2c0.8,0.6,1.9,0.8,2.9,0.6c1.6-0.4,2.9-2,3.2-3.9
				c0.1-0.9,0-1.8,0-2.6c0-0.4-0.1-0.8-0.1-1.2V220c-0.1-1-0.1-2.2,0.3-3.1c0.3-0.7,1-1.1,1.8-0.9c0.8,0.2,1.7,1,1.7,2.7v4.3
				c0,0.2,0.1,0.4,0.4,0.5l7.3,2.4l5.2,1.8l1.9,0.3c-9.2,2.7-45.1,13.5-48.8,14.6c-3.9,1.1-7.1-0.7-7.1-0.8
				c-0.1-0.1-0.3-0.1-0.4-0.1c-0.1,0-13,4-21.1,6.3c-6.2,1.8-9.8,1.1-11.1,0.7l2.3-4c0.1-0.2,0.1-0.5-0.1-0.7
				c-0.2-0.2-0.5-0.2-0.7,0c0,0-1.8,1.5-6.6,2.5c-0.1,0-1.2,0.2-3,0.6l5.6-1.6c0.2-0.1,0.4-0.3,0.4-0.5v-5.7l11.9-2.4
				c0.2,0,0.4-0.3,0.4-0.5V231c0.1-1.1,0.1-2.2,0.1-3.3L618,227.8L618,227.8z M594.6,246.2v-7.8l3.7-2.5l4.6-1.3l-2.7,2.1
				c-0.1,0.1-0.2,0.2-0.2,0.4v7.6L594.6,246.2z M610,179.9h2.4v4c0,0.3,0.2,0.5,0.5,0.5h4.4v42.3h-4c0.6-17.9-1.1-31.3-3.4-41.2
				L610,179.9L610,179.9z M590.9,162.8c1.1-0.1,4.8-0.1,8.3,0.1c1.5,1.8,15.5,19.3,13,68.2v5l-11.3,2.3v-1l4.7-3.6l0,0
				c0,0,0,0,0.1-0.1c0,0,0-0.1,0.1-0.1c0,0,0,0,0-0.1v-0.1l0,0l0,0v-0.1v-0.1l0,0l0,0c0,0,0,0,0-0.1l-0.1-0.1c0,0,0,0-0.1,0
				s-0.1,0-0.2-0.1l0,0l0,0l0,0l-14.5-1.5c0.1-0.1,0.2-0.2,0.2-0.4C590.8,213,590.6,167.1,590.9,162.8z M586.4,162.9h3.6
				c-0.2,2.8-0.4,14.9,0,68c0,0.1,0,0.2,0.1,0.3l-3.7-0.4L586.4,162.9L586.4,162.9z M582.1,231.5l3.3,0.3c0.1,0.1,0.2,0.2,0.4,0.2
				c0.1,0,0.2,0,0.3-0.1l16.4,1.7l-4.6,1.3l-20.8-2.6L582.1,231.5z M575.4,233.1l21.2,2.7l-2.8,2c-0.1,0.1-0.2,0.3-0.2,0.4v8.1
				l-12.6-2.7v-6c0-0.2-0.1-0.3-0.2-0.4L575.4,233.1z M512,253.1L512,253.1c0.1,0,0.1,0,0.2,0l10.2-1.4l55.1-8.9l2.5-0.5v1.7
				c0,0.2,0.2,0.5,0.4,0.5l13.6,2.9c-12.6,2.5-51.6,10.2-66,11.4l-1.2-3c-0.1-0.2-0.3-0.3-0.5-0.3c-0.1,0-7.5,0.5-14.2,0.8
				L512,253.1L512,253.1z M509.7,244.8c0.2-0.1,0.7-0.3,1.2-0.3v11.8c-0.4,0-0.8,0-1.2,0V244.8z M503.7,262.1L503.7,262.1
				c0-0.2-0.2-0.4-0.4-0.4l-4.2-4.7c-0.3-0.3-0.2-0.4-0.2-0.5c0.5-1.4,5.8-2.9,9.7-3.7v3.5c-2.1,0.1-4.1,0.1-5.5,0.1l0,0
				c-0.3,0-0.5,0.2-0.5,0.5s0.2,0.5,0.5,0.5c1.5,0,3.7,0,6-0.1l0,0l0,0c6.6-0.2,14.8-0.7,16.7-0.8l1.2,3c0.1,0.2,0.3,0.3,0.5,0.3
				c17-1.3,70-12.1,70.5-12.2c2.5-0.5,4.2-1.1,5.3-1.7l-1.7,2.8l0,0l0,0l0,0c0,0,0,0,0,0.1c-0.4,1.3-0.9,2.3-1.5,3.3l-21.2,5.2
				c-55.3,14-68.6,12-70.5,11.5c-0.1-0.8-0.4-1.6-0.8-2.1L503.7,262.1z M506.4,273.6c0.1-0.6,0.4-1.7,1.3-2.6
				c0.4-0.4,0.6-0.8,0.7-1.2c0.8,0.2,2.3,0.4,5.2,0.4c8,0,26.1-1.9,65.7-11.9l19.9-4.9c-2.9,3.3-6.9,4-7.1,4l-46.3,11.2
				C525.2,273.5,509.5,273.6,506.4,273.6z M871.1,231.1c-14.4,9.6-62.4,39.6-72.2,45.3c-9.9,5.7-20.1,11.6-34.5,21.2
				c-0.2,0.2-0.3,0.5-0.1,0.7c0.1,0.1,0.3,0.2,0.4,0.2c0.1,0,0.2,0,0.3-0.1c14.4-9.6,24.6-15.5,34.4-21.2
				c9.9-5.7,57.9-35.7,72.3-45.3c0.2-0.2,0.3-0.5,0.1-0.7C871.6,231,871.3,230.9,871.1,231.1z M764.6,291.1c0.8-0.9,1.5-1.9,2.2-2.9
				l0.1-0.1c3.5-5,6.2-10.8,8.1-17.5l0.1-0.5c0.2-0.8,0.3-1.6,0.3-2.6c0-0.3-0.2-0.5-0.5-0.5s-0.5,0.3-0.5,0.5c0,0.8,0,1.6-0.2,2.2
				l-0.1,0.5c-1.8,6.5-4.5,12.3-7.9,17.2c-6.5,4.4-13.2,9-19.6,13.4c-18.1,12.5-36.8,25.5-56.3,36.4c-26.2,14.7-56,23.4-82.3,31.1
				c-1.5,0.4-2.9,0.8-4.4,1.3c-10.7,3.1-21.8,6.3-32.1,11c-10.7,4.8-16.5,7.7-18.4,8.7c-0.3-1.9-1.1-3.9-2.8-6
				c-5-6.3-19.9-25.9-25-32.6c2.3,1,6.3,1.8,13.2,1.8c5.5,0,12.8-0.5,22.5-1.9c1.9-0.2,45.9-5.9,48.3-6.6c0,0,2.4-0.6,5.1-0.3
				c0.1,0.1,0.2,0.2,0.4,0.2c0.1,0,0.2,0,0.3-0.1c1.1,0.2,2.3,0.6,3.4,1.3c0.1,0,0.2,0.1,0.2,0.1c0.2,0,4.8,0.4,13.2-1.2
				c7.8-1.5,20.4-5,36.3-13.4c0.8-0.4,82.9-44.3,103.3-58.7c0.1-0.1,1.9-1.4,2.6-2.8c0.1-0.3,0-0.6-0.3-0.7s-0.6,0-0.7,0.3
				c-0.5,1.1-2.2,2.4-2.2,2.4c-20.3,14.3-102.4,58.2-103.2,58.6c-29,15.2-47.2,14.5-48.8,14.4c-1.2-0.7-2.4-1.1-3.6-1.4V340
				l12.1-4.8v7.7c0,0.3,0.2,0.5,0.5,0.5s0.5-0.2,0.5-0.5v-8.5c0-0.1,0-0.1,0-0.2l0,0l0,0c0-0.1-0.1-0.1-0.1-0.1s0,0-0.1,0l-0.1-0.1
				c0,0,0,0-0.1,0h-0.1l-18.4-2v-11.3l0,0v-0.1v-0.1l0,0c0,0,0,0,0-0.1c0,0,0-0.1-0.1-0.1c0,0,0,0-0.1,0c0,0-0.1,0-0.1-0.1h-0.1
				c0,0,0,0-0.1,0l-4.6-0.3v-18.1l41.6,4.8v28v0.1c-7.9,2.9-12.8,3.8-12.9,3.8c-0.3,0.1-0.5,0.3-0.4,0.6c0,0.2,0.3,0.4,0.5,0.4h0.1
				c0.1,0,13.8-2.6,32.7-12.7l32.1-17.9l0,0c0,0.3,0.2,0.5,0.5,0.5s0.5-0.2,0.5-0.5v-0.6l8-4.4c0.1,0,0.1,0.1,0.2,0.1
				c0.3,0,0.5-0.2,0.5-0.5l8.7-4.8c0.1,0,0.2,0.1,0.2,0.1c0.3,0,0.5-0.2,0.5-0.5l41-22.8c0.2-0.1,0.3-0.5,0.2-0.7s-0.5-0.3-0.7-0.2
				l-3.6,2v-14c0-0.3-0.2-0.5-0.5-0.5h-3.1v-11.4h17.1v12.5l-12.3-0.6c-0.3,0-0.5,0.2-0.5,0.5s0.2,0.5,0.5,0.5l12.3,0.6v5.6h-6.7
				c-0.3,0-0.5,0.2-0.5,0.5v3.5c0,0.3,0.2,0.5,0.5,0.5s0.5-0.2,0.5-0.5v-3h6.7l0,0l0,0c0.1,0,0.1,0,0.2-0.1l0,0l8.8-5.5
				c0.2-0.1,0.2-0.3,0.2-0.4v-18v-0.1v-0.1l0,0c0-0.1-0.1-0.1-0.1-0.1l0,0c-0.1-0.1-0.2-0.2-0.4-0.2l-19.3-0.8v-1.8
				c0-0.3-0.2-0.5-0.5-0.5h-8.7v-1.5c0-0.3-0.2-0.5-0.5-0.5h-4.7V235c0-0.3-0.2-0.5-0.5-0.5h-4.7v-4.9c0-0.3-0.2-0.5-0.5-0.5h-2
				v-1.8c0-0.3-0.2-0.5-0.5-0.5h-5.7c-0.3,0-0.5,0.2-0.5,0.5v2.5H726v-1.9c0-0.3-0.2-0.5-0.5-0.5H723c-0.3,0-0.5,0.2-0.5,0.5V239
				h-2.9v-1c0-0.3-0.2-0.5-0.5-0.5h-3.7c-0.3,0-0.5,0.2-0.5,0.5v2.8c0,0.3,0.2,0.5,0.5,0.5h1.2v2.6l-8-0.1l-1.7-1.7
				c-0.1-0.1-0.2-0.2-0.4-0.2h-5.7c-0.3,0-0.5,0.2-0.5,0.5v2.4c0,0.3,0.2,0.5,0.5,0.5h5.5l3.8,5h-19.4c-0.3,0-0.5,0.2-0.5,0.5v3.8
				h-3.3c-0.3,0-0.5,0.2-0.5,0.5v8.2h-18.3l0,0l0,0H668l-16.8,2c0,0,0,0-0.1,0H651c0,0-0.1,0-0.1,0.1c0,0,0,0-0.1,0.1
				c0,0,0,0.1-0.1,0.1c0,0,0,0,0,0.1v0.1c0,0,0,0,0,0.1l0,0l0,0v2.9h-11.3l-11.6,1.9l0,0c0,0,0,0-0.1,0c0,0-0.1,0-0.1,0.1
				c0,0,0,0-0.1,0c0,0,0,0.1-0.1,0.1c0,0,0,0,0,0.1v0.1c0,0,0,0,0,0.1l0,0l0,0v11.6l-10.7-0.9c0,0,0,0-0.1,0h-0.1l-16,3l0,0
				c0,0,0,0-0.1,0c0,0-0.1,0-0.1,0.1l0,0l-0.1,0.1c0,0,0,0,0,0.1v0.1l0,0l0,0l0,0v6.9c0,0.1,0,0.2,0.1,0.3l-14.4-1.6
				c-0.1,0-0.2,0-0.2,0l-20.6,7.6c-0.1,0-0.2,0.1-0.3,0.3l0,0l0,0l0,0l0,0c0,0.1,0,0.1,0,0.2v5.4c0,0.3,0.2,0.5,0.5,0.5
				s0.5-0.2,0.5-0.5v-4.9l31.9,1.9v18l-5.2-0.4c-0.1,0-0.2,0-0.2,0l-8.7,3.6l0,0l0,0l0,0c-0.1,0-0.1,0.1-0.2,0.2l0,0
				c0,0.1-0.1,0.1-0.1,0.2l0,0l0,0v2.8l-10.6,4H567v-3.3l18.9-6.7c0.3-0.1,0.4-0.4,0.3-0.7c-0.1-0.3-0.4-0.4-0.7-0.3l-19.2,6.8h-3.2
				l16.4-6c0.2-0.1,0.3-0.3,0.3-0.5v-6.8c0-0.2-0.1-0.3-0.2-0.4c-0.1-0.1-0.3-0.1-0.5-0.1l-9.9,3.9l-7.2-0.1v-4.1l16.8-5.4v4.1
				c0,0.3,0.2,0.5,0.5,0.5s0.5-0.2,0.5-0.5v-4.8c0-0.1,0-0.2-0.1-0.2c0,0,0,0,0-0.1l-0.1-0.1l0,0l0,0c0,0-0.1,0-0.1-0.1h-0.1l0,0
				h-10.5c-0.1,0-0.1,0-0.2,0l-17.5,5.7h-3.3c-0.3,0-0.5,0.2-0.5,0.5v4.6h-2.7c-0.3,0-0.5,0.2-0.5,0.5v18c0,0.3,0.2,0.5,0.5,0.5
				s0.5-0.2,0.5-0.5v-17.5h2.7c0.3,0,0.5-0.2,0.5-0.5V312h2.4v29.4c0,0.3,0.2,0.5,0.5,0.5s0.5-0.2,0.5-0.5v-20.7l7.9,0.5v5.2
				c0,0.1,0,0.2,0.1,0.2c0,0,0,0,0,0.1l0.1,0.1l0,0l0,0c0.1,0,0.2,0.1,0.3,0.1h5.7v3.7c0,0.3,0.2,0.5,0.5,0.5h5.8v3.5
				c0,0.3,0.2,0.5,0.5,0.5l11,0.7c0.1,0,0.3,0,0.4-0.1c0.1-0.1,0.2-0.2,0.2-0.4v-11.5l16.4,1.2v15.7c0,0.3,0.2,0.5,0.5,0.5
				s0.5-0.2,0.5-0.5v-7.9l6.9-3.5v9.7c0,0.3,0.2,0.5,0.4,0.5l5.3,0.7v2.4c-2.8-0.3-5.1,0.3-5.2,0.4c-2.4,0.6-47.7,6.5-48.2,6.6
				c-26.9,3.8-34.7,1.1-37-0.9c-0.8-0.7-0.8-1.2-0.8-1.2c0-0.1,0-0.3-0.1-0.4c-0.9-0.9-1.1-2.1-0.9-3.5c0.8-3.7,5.8-8.3,10-10.2
				c0.3-0.1,0.4-0.4,0.3-0.7c-0.1-0.3-0.4-0.4-0.7-0.3c-4.4,2-9.7,6.7-10.5,10.9c-0.3,1.6,0,3,1,4.2c0,0.3,0.2,0.8,0.7,1.3l0,0
				c0.2,0.3,20.8,27.3,26.8,34.9c1.7,2.2,2.5,4.3,2.7,6.1c0,0,0,0,0,0.1c0.4,4.3-2.2,7.5-2.4,7.7l-0.1,0.1c-1.7,3-3.9,6.8-4,10.5
				c0,0.6,0,1.5,0.7,2c0.7,0.6,1.4,0.8,2.3,0.8c3.3,0,7.5-3.7,10.3-6c0.8-0.7,1.4-1.2,1.9-1.6c13.2-9.6,29.1-18,49.9-26.4
				c10.7-4.3,21.8-8.1,32.6-11.7c15.7-5.3,32-10.7,47.1-18c11.4-5.5,23-12.5,36.5-21.9c0.4-0.3,1.1-0.8,2.2-1.5
				c32-22,31.7-23,31.3-23.7C760.3,300.4,759.4,297.5,764.6,291.1z M568.8,306.3h7.1l-14.6,4.7h-7L568.8,306.3z M560,320.2l-8.4-0.6
				v-7.8l0.5-0.2c0.1,0.2,0.3,0.3,0.5,0.3h8.3v4.5c0,0.3,0.2,0.5,0.5,0.5l7.8,0.1c0.1,0,0.1,0,0.2,0l9.2-3.7v5.7l-18.2,6.6v-5
				C560.5,320.4,560.3,320.2,560,320.2z M583,334.8l-10-0.6V331l10-3.8V334.8z M603.6,300.8L603.6,300.8c-0.1,0.1-0.2,0.1-0.2,0.2
				l0,0c0,0.1-0.1,0.1-0.1,0.2l0,0l0,0v18.6l-4.7-0.3v-18.2l14.2-6.1v2.2L603.6,300.8z M606,301l7-2.6c0.1,0,0.1,0.1,0.2,0.1
				c0.2,0,0.4-0.1,0.5-0.3l2.9-1.1l40.6,4.5l-10.9,4.1L606,301z M659,302.1v7.2l-12,4.9v-7.6L659,302.1z M647,334.4v-19.1l12-4.9
				v18.2c0,0.3,0.2,0.5,0.4,0.5C654.8,331.3,650.6,333,647,334.4z M698.1,288.2l-3.7-0.3V277l3.7,0.3V288.2z M706.8,303l-7.7,4.3
				v-30.1l7.7-3.1V303z M717.3,297.1v-26.6l5.8-2.1v25.3c0,0.1,0,0.1,0,0.2L717.3,297.1z M748.2,279.9l-4.1,2.3v-22.5l4.1-0.7V279.9
				z M776.5,264.6l-7.8,4.9v-18.9l7.8-2.9V264.6z M691.2,251.3H711c0.2,0,0.4-0.1,0.5-0.3s0.1-0.4-0.1-0.5l-4.6-6
				c-0.1-0.1-0.2-0.2-0.4-0.2h-5.2v-1.4h5l1.7,1.7c0.1,0.1,0.2,0.1,0.4,0.2l33.3,0.5l0,0c0.3,0,0.5-0.2,0.5-0.5s-0.2-0.5-0.5-0.5
				l-24-0.4v-3.1c0-0.3-0.2-0.5-0.5-0.5h-1.2v-1.8h2.7v1c0,0.3,0.2,0.5,0.5,0.5h3.9c0.3,0,0.5-0.2,0.5-0.5v-11.1h1.4v1.9
				c0,0.3,0.2,0.5,0.5,0.5h3.9c0.3,0,0.5-0.2,0.5-0.5v-2.5h4.7v1.8c0,0.3,0.2,0.5,0.5,0.5h2v4.9c0,0.3,0.2,0.5,0.5,0.5h4.7v6.1
				c0,0.3,0.2,0.5,0.5,0.5h4.7v1.5c0,0.3,0.2,0.5,0.5,0.5h8.7v1.8c0,0.3,0.2,0.5,0.5,0.5l17.2,0.8l-6.3,2.3h-14.8l3.5-1.1
				c0.3-0.1,0.4-0.4,0.3-0.7c-0.1-0.3-0.4-0.4-0.7-0.3l-6.6,2.1l0,0c0,0-0.1,0-0.1,0.1h-0.1c0,0,0,0.1-0.1,0.1c0,0,0,0.1-0.1,0.1
				v0.1v0.1l0,0v12.5c0,0.3,0.2,0.5,0.5,0.5h3.1v14l-4,2.2v-21c0-0.2-0.1-0.3-0.2-0.4c-0.1-0.1-0.3-0.1-0.4-0.1l-5.1,0.9h-2.7V257
				c0-0.3-0.2-0.5-0.5-0.5l-49.2-2.1v-3.1H691.2z M686.8,264.3c0.3,0,0.5-0.2,0.5-0.5v-8.2h3.3l49.2,2.1v1.6c0,0.3,0.2,0.5,0.5,0.5
				h2.7v23l-19,10.6v-25.6c0,0,0,0,0-0.1s0-0.1,0-0.2c0,0,0,0,0-0.1l-0.1-0.1l0,0l0,0c0,0-0.1,0-0.2-0.1c0,0,0,0-0.1,0l0,0l-41-2.9
				L686.8,264.3L686.8,264.3z M667.9,264.3l53.3,3.8l-4.5,1.7l-60-4.1L667.9,264.3z M651.6,266.3l64.6,4.4v27l-8.4,4.7v-29.1
				c0-0.1-0.1-0.3-0.1-0.4c0,0,0,0-0.1,0l-0.1-0.1c0,0,0,0-0.1,0h-0.1l-55.7-4.1L651.6,266.3L651.6,266.3z M639.4,269.7h11.7l53.9,4
				l-6.5,2.6l-66.4-5.4L639.4,269.7z M689.5,276.6l3.8,0.3v10.9l-3.7-0.3v-10.7C689.6,276.7,689.5,276.6,689.5,276.6z M628.3,271.6
				l60.3,4.9c-0.1,0.1-0.1,0.2-0.1,0.3V288c0,0.3,0.2,0.5,0.5,0.5l9.1,0.8v18.6L665.4,326c-1.9,1-3.7,1.9-5.5,2.8
				c0-0.1,0.1-0.2,0.1-0.3V305l15.6,1.2v12.2c0,0.3,0.2,0.5,0.5,0.5s0.5-0.2,0.5-0.5v-12.5l10.8-5.2l0,0l1-0.5v6.6
				c0,0.3,0.2,0.5,0.5,0.5s0.5-0.2,0.5-0.5v-7.4c0-0.2-0.1-0.3-0.2-0.4c-0.1-0.1-0.3-0.1-0.5,0l-1,0.5v-10.2l0,0l0,0v-0.1
				c0,0,0,0,0-0.1s-0.1-0.1-0.1-0.1l0,0c0,0-0.1-0.1-0.2-0.1c0,0,0,0-0.1,0h-0.1l-4.1-0.4V277c0-0.2-0.1-0.3-0.2-0.4
				c-0.1-0.1-0.3-0.1-0.5-0.1l-9.1,3c-1.5-0.3-7.5-0.8-32.6-2.5c-0.3,0-0.5,0.2-0.6,0.5c0,0.3,0.2,0.5,0.5,0.6
				c11.8,0.8,29.4,2.1,32.3,2.4c0,0.7,0,2.4,0,6.5l-44.6-3.9L628.3,271.6L628.3,271.6z M676.3,293.5l10.4-3.5v10l-10.1,4.8V294
				C676.6,293.7,676.5,293.6,676.3,293.5z M616.6,282.8l56.9,5l0,0c0.1,0,0.3,0,0.4-0.1c0.1-0.1,0.2-0.2,0.2-0.4
				c0-2.4-0.1-6.1,0-7.1l8.2-2.7v11.3c0,0,0,0,0,0.1v0.1v0.1c0,0,0,0.1,0.1,0.1c0,0,0,0,0.1,0.1c0,0,0.1,0,0.1,0.1h0.1
				c0,0,0,0,0.1,0l2.2,0.2l-8.9,3l0,0H676l-71.7-7.3L616.6,282.8z M601.1,292.2v-6.4l74.7,7.6c0,0,0,0,0.1,0c0,0,0,0,0.1,0
				c-0.2,0.1-0.3,0.3-0.3,0.5v11.2L660,304v-2.7c0,0,0,0,0-0.1s0-0.1,0-0.1s0,0,0-0.1l-0.1-0.1l0,0l0,0c-0.1,0-0.1-0.1-0.2-0.1l0,0
				l0,0l-42.9-4.7c-0.1,0-0.2,0-0.2,0l-2.6,1v-2.6l0,0l0,0l0,0c0-0.1-0.1-0.2-0.1-0.3l0,0c-0.1-0.1-0.2-0.1-0.3-0.1l0,0l-12.4-1.4
				C601,292.5,601.1,292.4,601.1,292.2z M567.6,298.7l18.2-6.7l25.5,2.8l-13.3,5.7L567.6,298.7z M600.9,324l-15.1-1.1l6.6-2.7
				l5.4,0.4c0.1,0,0.2,0.1,0.3,0.1s0.1,0,0.2,0l8.6,0.6L600.9,324z M608.4,328.2l-6.9,3.5v-6.9l6.9-3.3V328.2z M609.4,338.6v-5.5
				l16.2,1.7l-11.1,4.4L609.4,338.6z M759.4,300.8c-0.6,1.1-6.6,5.9-30.9,22.6c-1.1,0.7-1.8,1.2-2.2,1.5
				c-13.5,9.4-25.1,16.4-36.4,21.8c-15,7.3-31.2,12.7-46.9,18c-10.8,3.6-22,7.4-32.7,11.7c-20.9,8.4-36.8,16.9-50.1,26.6
				c-0.5,0.4-1.2,0.9-2,1.6c-3,2.6-8.6,7.4-11.2,5.2c-0.2-0.2-0.3-0.6-0.3-1.2c0.1-3.4,2.1-7,3.8-10v-0.1c0,0,2.8-3.4,2.5-8.1
				c1.3-0.7,7.1-3.6,18.7-8.8c10.2-4.6,21.3-7.8,32-10.9c1.5-0.4,2.9-0.8,4.4-1.3c26.3-7.7,56.2-16.4,82.5-31.2
				c19.5-10.9,38.3-23.9,56.4-36.5c5.6-3.9,11.3-7.8,17.1-11.7c-0.1,0.1-0.2,0.2-0.3,0.3C758.6,296.8,759.1,300,759.4,300.8z"/>
		</g>
	</g>
</g>
</svg>
